<?xml version="1.0" encoding="utf-8"?>
<!-- Generator: Adobe Illustrator 15.0.0, SVG Export Plug-In . SVG Version: 6.00 Build 0)  -->
<!DOCTYPE svg PUBLIC "-//W3C//DTD SVG 1.1//EN" "http://www.w3.org/Graphics/SVG/1.1/DTD/svg11.dtd">
<svg version="1.1" id="Layer_1" xmlns="http://www.w3.org/2000/svg" xmlns:xlink="http://www.w3.org/1999/xlink" x="0px" y="0px"
	 width="166.918px" height="34.336px" viewBox="0 0 166.918 34.336" enable-background="new 0 0 166.918 34.336"
	 xml:space="preserve">
<g>
	<g>
		<g>
			<path fill="#FFFFFF" d="M23.896,4.248c-0.274-0.142-0.598-0.149-0.879-0.022c-0.281,0.131-0.492,0.379-0.566,0.678l-0.028,0.124
				c-0.112,0.456,0.1,0.93,0.516,1.145c1.533,0.794,2.478,2.428,2.388,4.159c-0.026,0.485,0.293,0.918,0.764,1.039l0.124,0.029
				c0.292,0.073,0.602,0.011,0.847-0.168c0.239-0.178,0.394-0.455,0.408-0.758C27.617,7.875,26.199,5.424,23.896,4.248L23.896,4.248
				z M23.896,4.248"/>
			<path fill="#FFFFFF" d="M24.829,0.071c-0.27-0.106-0.572-0.092-0.831,0.043c-0.259,0.135-0.448,0.372-0.521,0.656l-0.029,0.124
				c-0.124,0.49,0.139,0.998,0.612,1.184c3.682,1.447,5.932,5.255,5.389,9.188c-0.07,0.515,0.254,0.996,0.758,1.119l0.124,0.034
				c0.281,0.069,0.574,0.014,0.812-0.146c0.236-0.16,0.393-0.416,0.434-0.7C32.261,6.649,29.443,1.875,24.829,0.071L24.829,0.071z
				 M24.829,0.071"/>
		</g>
		<path fill="#FFFFFF" d="M16.533,5.61H7.159C3.189,5.61,0,8.807,0,12.776v14.678c0,1.419,0.85,2.629,2.124,3.091v1.13
			c0,1.474,1.197,2.66,2.67,2.66h0.419c1.472,0,2.683-1.187,2.683-2.66v-0.921h7.895v0.921c0,1.474,1.188,2.66,2.661,2.66h0.418
			c1.474,0,2.69-1.187,2.69-2.66v-1.13c1.214-0.467,2.129-1.672,2.129-3.094V12.747C23.684,8.796,20.484,5.61,16.533,5.61
			L16.533,5.61z M5.183,27.753c-1.322,0-2.396-1.074-2.396-2.397c0-1.324,1.073-2.395,2.396-2.395c1.323,0,2.395,1.07,2.395,2.395
			C7.578,26.679,6.506,27.753,5.183,27.753L5.183,27.753z M4.431,19.275c-0.875,0-1.577-0.739-1.577-1.613v-3.956
			c0-2.496,2.016-4.512,4.513-4.512h8.927c2.495,0,4.536,2.016,4.536,4.512v3.956c0,0.874-0.728,1.613-1.603,1.613H4.431z
			 M18.479,27.753c-1.321,0-2.397-1.074-2.397-2.397c0-1.324,1.076-2.395,2.397-2.395c1.323,0,2.396,1.07,2.396,2.395
			C20.875,26.679,19.802,27.753,18.479,27.753L18.479,27.753z M18.479,27.753"/>
	</g>
	<g>
		<path fill="#FFFFFF" d="M54.908,24.192c0,4.011-2.791,6.139-7.256,6.139h-8.197V8.913h7.5c4.465,0,7.255,1.988,7.255,5.825
			c0,2.303-1.221,3.978-2.79,4.535C53.442,19.936,54.908,21.924,54.908,24.192z M46.919,17.913c2.477,0,3.802-0.941,3.802-2.965
			s-1.325-2.896-3.802-2.896h-3.941v5.86H46.919z M42.978,27.191h4.604c2.441,0,3.767-1.221,3.767-3.139
			c0-1.954-1.325-3.14-3.767-3.14h-4.604V27.191z"/>
		<path fill="#FFFFFF" d="M70.379,30.331h-3.488v-1.465c-0.837,0.977-2.337,1.813-4.15,1.813c-3.522,0-5.441-2.337-5.441-5.755
			V14.843h3.488v9.487c0,1.919,0.907,3.175,2.896,3.175c1.499,0,2.824-0.942,3.208-2.477V14.843h3.488V30.331z"/>
		<path fill="#FFFFFF" d="M76.054,25.866c0.383,1.291,1.534,1.953,3.069,1.953c1.604,0,2.65-0.628,2.65-1.849
			c0-0.837-0.522-1.29-1.813-1.604l-3.209-0.768c-2.197-0.523-3.837-1.709-3.837-4.255c0-2.791,2.477-4.85,5.86-4.85
			c3.627,0,5.686,1.745,6.209,4.57h-3.419c-0.313-1.012-1.221-1.709-2.825-1.709c-1.221,0-2.477,0.558-2.477,1.778
			c0,0.698,0.488,1.151,1.604,1.431l3.279,0.768c2.65,0.628,3.976,2.127,3.976,4.395c0,3.069-2.546,4.953-6.034,4.953
			c-3.628,0-6.139-1.813-6.593-4.813H76.054z"/>
		<path fill="#FFFFFF" d="M87.738,30.331V8.913h13.674v3.21H91.366v6.349h9.383v3.174h-9.383v8.686H87.738z"/>
		<path fill="#FFFFFF" d="M105.279,12.296c-1.151,0-2.163-0.941-2.163-2.128c0-1.186,1.012-2.128,2.163-2.128
			c1.15,0,2.162,0.942,2.162,2.128C107.441,11.355,106.429,12.296,105.279,12.296z M107.022,30.331h-3.487V14.843h3.487V30.331z"/>
		<path fill="#FFFFFF" d="M110.122,14.843h3.487v1.465c0.838-0.977,2.372-1.814,4.187-1.814c3.522,0,5.477,2.338,5.477,5.756v10.081
			h-3.488v-9.488c0-1.918-0.942-3.174-2.931-3.174c-1.5,0-2.86,0.941-3.244,2.477v10.186h-3.487V14.843z"/>
		<path fill="#FFFFFF" d="M136.415,29.005c-0.698,0.872-2.232,1.674-3.942,1.674c-4.534,0-7.186-3.628-7.186-8.093
			c0-4.43,2.651-8.093,7.186-8.093c1.71,0,3.244,0.803,3.942,1.675V7.658h3.487v22.673h-3.487V29.005z M136.415,19.657
			c-0.594-1.221-1.919-2.058-3.349-2.058c-2.687,0-4.291,2.128-4.291,4.987c0,2.86,1.604,4.988,4.291,4.988
			c1.43,0,2.755-0.837,3.349-2.058V19.657z"/>
		<path fill="#FFFFFF" d="M155.922,25.517c-0.523,3.069-2.791,5.162-6.523,5.162c-4.325,0-7.325-3.278-7.325-8.058
			c0-4.639,3.035-8.128,7.256-8.128c4.36,0,6.732,3.105,6.732,7.64v1.256h-10.569c0.104,2.721,1.674,4.36,3.906,4.36
			c1.675,0,2.931-0.732,3.313-2.232H155.922z M145.597,20.842h7.011c-0.034-1.883-1.116-3.418-3.243-3.418
			C147.446,17.424,146.015,18.61,145.597,20.842z"/>
		<path fill="#FFFFFF" d="M166.918,18.366c-0.488-0.349-1.325-0.522-2.059-0.522c-1.43,0-2.755,0.802-3.104,2.477v10.011h-3.487
			V14.843h3.487v1.604c0.594-1.151,1.954-1.954,3.454-1.954c0.767,0,1.465,0.14,1.709,0.279V18.366z"/>
	</g>
</g>
</svg>
