<?xml version="1.0" encoding="utf-8"?>
<!-- Generator: Adobe Illustrator 15.0.0, SVG Export Plug-In . SVG Version: 6.00 Build 0)  -->
<!DOCTYPE svg PUBLIC "-//W3C//DTD SVG 1.1//EN" "http://www.w3.org/Graphics/SVG/1.1/DTD/svg11.dtd">
<svg version="1.1" id="Layer_1" xmlns="http://www.w3.org/2000/svg" xmlns:xlink="http://www.w3.org/1999/xlink" x="0px" y="0px"
	 width="21.5px" height="40.252px" viewBox="0 0 21.5 40.252" enable-background="new 0 0 21.5 40.252" xml:space="preserve">
<g>
	<path fill="#3EBB51" d="M10.75,37.555c-0.877-4.048-3.066-12.062-7.7-18.978C1.17,15.771,0.5,12.694,0.5,10.75
		C0.5,5.098,5.099,0.5,10.75,0.5C16.403,0.5,21,5.098,21,10.75c0,1.944-0.67,5.021-2.55,7.827
		C13.817,25.493,11.627,33.507,10.75,37.555z"/>
	<path fill="#499051" d="M10.75,1c5.376,0,9.75,4.374,9.75,9.75c0,1.87-0.647,4.835-2.466,7.548
		c-4.005,5.979-6.183,12.63-7.284,17.002c-1.102-4.372-3.279-11.023-7.285-17.002C1.648,15.585,1,12.62,1,10.75
		C1,5.374,5.375,1,10.75,1 M10.75,0C4.813,0,0,4.813,0,10.75c0,1.869,0.618,5.095,2.635,8.105c6.49,9.687,8.115,21.397,8.115,21.397
		s1.625-11.71,8.115-21.397c2.017-3.01,2.635-6.236,2.635-8.105C21.5,4.813,16.688,0,10.75,0L10.75,0z"/>
</g>
</svg>
