<?xml version="1.0" encoding="utf-8"?>
<!-- Generator: Adobe Illustrator 15.0.0, SVG Export Plug-In . SVG Version: 6.00 Build 0)  -->
<!DOCTYPE svg PUBLIC "-//W3C//DTD SVG 1.1//EN" "http://www.w3.org/Graphics/SVG/1.1/DTD/svg11.dtd">
<svg version="1.1" id="Layer_1" xmlns="http://www.w3.org/2000/svg" xmlns:xlink="http://www.w3.org/1999/xlink" x="0px" y="0px"
	 width="21.5px" height="40.252px" viewBox="0 0 21.5 40.252" enable-background="new 0 0 21.5 40.252" xml:space="preserve">
<path fill="#133939" d="M10.75,0C4.813,0,0,4.813,0,10.75c0,1.869,0.618,5.095,2.635,8.105c6.49,9.687,8.115,21.397,8.115,21.397
	s1.625-11.71,8.115-21.397c2.017-3.01,2.635-6.236,2.635-8.105C21.5,4.813,16.688,0,10.75,0z"/>
<path fill="#3EBB51" d="M10.193,19.652c0.155,0.156,0.359,0.235,0.56,0.235c0.204,0,0.407-0.079,0.561-0.235l5.439-5.439
	c0.309-0.309,0.309-0.812,0-1.126L16,12.333c-0.308-0.309-0.812-0.309-1.126,0l-2.797,2.799V4.628c0-0.439-0.359-0.795-0.795-0.795
	H10.22c-0.438,0-0.795,0.354-0.795,0.795v10.507l-2.798-2.799c-0.309-0.309-0.816-0.309-1.126,0l-0.753,0.753
	c-0.309,0.308-0.309,0.815,0,1.126L10.193,19.652z M10.193,19.652"/>
</svg>
