<?xml version="1.0" encoding="utf-8"?>
<!-- Generator: Adobe Illustrator 15.0.0, SVG Export Plug-In . SVG Version: 6.00 Build 0)  -->
<!DOCTYPE svg PUBLIC "-//W3C//DTD SVG 1.1//EN" "http://www.w3.org/Graphics/SVG/1.1/DTD/svg11.dtd">
<svg version="1.1" id="Capa_1" xmlns="http://www.w3.org/2000/svg" xmlns:xlink="http://www.w3.org/1999/xlink" x="0px" y="0px"
	 width="141.73px" height="141.73px" viewBox="0 0 141.73 141.73" enable-background="new 0 0 141.73 141.73" xml:space="preserve">
<g id="Search">
	<path fill="#A9A9A9" d="M138.262,121.511l-30.791-30.79c-0.163-0.163-0.355-0.277-0.526-0.43c6.059-9.19,9.595-20.191,9.595-32.021
		C116.539,26.089,90.451,0,58.27,0C26.088,0,0,26.089,0,58.269s26.088,58.27,58.269,58.27c11.831,0,22.832-3.536,32.022-9.595
		c0.152,0.171,0.266,0.362,0.43,0.526l30.79,30.79c4.626,4.625,12.124,4.625,16.751,0
		C142.886,133.635,142.886,126.136,138.262,121.511z M58.27,96.339c-21.025,0-38.07-17.044-38.07-38.069S37.245,20.2,58.27,20.2
		c21.024,0,38.069,17.044,38.069,38.069S79.294,96.339,58.27,96.339z"/>
</g>
</svg>
